<svg xmlns="http://www.w3.org/2000/svg" viewBox="0 0 32 32"><g id="calculator"><path d="M22.74,2H9.26A3.26,3.26,0,0,0,6,5.26V26.74A3.26,3.26,0,0,0,9.26,30H22.74A3.26,3.26,0,0,0,26,26.74V5.26A3.26,3.26,0,0,0,22.74,2ZM24,26.74A1.25,1.25,0,0,1,22.74,28H9.26A1.25,1.25,0,0,1,8,26.74V5.26A1.25,1.25,0,0,1,9.26,4H22.74A1.25,1.25,0,0,1,24,5.26Z"/><path d="M21.19,5H10.81A1.81,1.81,0,0,0,9,6.81v3.38A1.81,1.81,0,0,0,10.81,12H21.19A1.81,1.81,0,0,0,23,10.19V6.81A1.81,1.81,0,0,0,21.19,5ZM21,10H11V7H21Z"/><path d="M12,13a3,3,0,1,0,3,3A3,3,0,0,0,12,13Zm0,4a1,1,0,1,1,1-1A1,1,0,0,1,12,17Z"/><path d="M20,13a3,3,0,1,0,3,3A3,3,0,0,0,20,13Zm0,4a1,1,0,1,1,1-1A1,1,0,0,1,20,17Z"/><path d="M12,20a3,3,0,1,0,3,3A3,3,0,0,0,12,20Zm0,4a1,1,0,1,1,1-1A1,1,0,0,1,12,24Z"/><path d="M20,20a3,3,0,1,0,3,3A3,3,0,0,0,20,20Zm0,4a1,1,0,1,1,1-1A1,1,0,0,1,20,24Z"/></g></svg>